<?xml version="1.0" encoding="utf-8"?>
<!-- Generator: Adobe Illustrator 25.4.1, SVG Export Plug-In . SVG Version: 6.00 Build 0)  -->
<svg version="1.1" id="Camada_1" xmlns="http://www.w3.org/2000/svg" xmlns:xlink="http://www.w3.org/1999/xlink" x="0px" y="0px"
	 viewBox="0 0 48.01 46.83" style="enable-background:new 0 0 48.01 46.83;" xml:space="preserve">
<style type="text/css">
	.st0{fill-rule:evenodd;clip-rule:evenodd;fill:#231E1B;}
	.st1{fill:#231E1B;}
</style>
<g>
	<path class="st0" d="M24.01,0C10.75,0,0,10.75,0,24.01c0,10.61,6.88,19.6,16.42,22.78c1.2,0.22,1.64-0.52,1.64-1.15
		c0-0.57-0.02-2.46-0.03-4.47c-6.68,1.45-8.09-2.83-8.09-2.83c-1.09-2.77-2.67-3.51-2.67-3.51c-2.18-1.49,0.16-1.46,0.16-1.46
		c2.41,0.17,3.68,2.47,3.68,2.47c2.14,3.67,5.62,2.61,6.99,2c0.22-1.55,0.84-2.61,1.52-3.21c-5.33-0.61-10.94-2.67-10.94-11.86
		c0-2.62,0.94-4.76,2.47-6.44c-0.25-0.6-1.07-3.05,0.23-6.35c0,0,2.02-0.64,6.6,2.46c1.92-0.53,3.97-0.8,6.01-0.81
		c2.04,0.01,4.1,0.28,6.01,0.81c4.58-3.11,6.59-2.46,6.59-2.46c1.31,3.31,0.48,5.75,0.24,6.35c1.54,1.68,2.47,3.82,2.47,6.44
		c0,9.22-5.62,11.25-10.96,11.84c0.86,0.75,1.63,2.21,1.63,4.45c0,3.21-0.03,5.8-0.03,6.59c0,0.64,0.43,1.39,1.65,1.15
		c9.53-3.18,16.4-12.17,16.4-22.78C48.01,10.75,37.26,0,24.01,0z"/>
	<path class="st1" d="M9.09,34.47c-0.05,0.12-0.24,0.16-0.41,0.07c-0.17-0.08-0.27-0.24-0.22-0.36c0.05-0.12,0.24-0.16,0.41-0.07
		C9.05,34.18,9.15,34.35,9.09,34.47L9.09,34.47z M8.8,34.25"/>
	<path class="st1" d="M10.06,35.55c-0.11,0.11-0.34,0.06-0.49-0.11c-0.16-0.17-0.19-0.39-0.07-0.5c0.12-0.11,0.34-0.06,0.49,0.11
		C10.15,35.22,10.18,35.44,10.06,35.55L10.06,35.55z M9.84,35.31"/>
	<path class="st1" d="M11.01,36.93c-0.15,0.1-0.39,0.01-0.54-0.21c-0.15-0.21-0.15-0.47,0-0.57c0.15-0.1,0.39-0.01,0.54,0.2
		C11.16,36.57,11.16,36.83,11.01,36.93L11.01,36.93z M11.01,36.93"/>
	<path class="st1" d="M12.31,38.27c-0.13,0.15-0.41,0.11-0.62-0.09c-0.21-0.19-0.27-0.47-0.14-0.61c0.13-0.15,0.42-0.1,0.62,0.09
		C12.38,37.85,12.45,38.13,12.31,38.27L12.31,38.27z M12.31,38.27"/>
	<path class="st1" d="M14.1,39.05c-0.06,0.19-0.33,0.27-0.6,0.19c-0.27-0.08-0.45-0.3-0.39-0.49c0.06-0.19,0.33-0.28,0.6-0.19
		C13.98,38.64,14.15,38.85,14.1,39.05L14.1,39.05z M14.1,39.05"/>
	<path class="st1" d="M16.06,39.19c0.01,0.2-0.22,0.36-0.51,0.37c-0.29,0.01-0.52-0.15-0.52-0.35c0-0.2,0.23-0.36,0.51-0.37
		C15.83,38.83,16.06,38.99,16.06,39.19L16.06,39.19z M16.06,39.19"/>
	<path class="st1" d="M17.89,38.88c0.03,0.19-0.16,0.39-0.45,0.44c-0.28,0.05-0.54-0.07-0.57-0.26c-0.03-0.2,0.17-0.4,0.45-0.45
		C17.6,38.57,17.85,38.68,17.89,38.88L17.89,38.88z M17.89,38.88"/>
</g>
</svg>
